<svg xmlns="http://www.w3.org/2000/svg" width="48" height="48" id="cloud"><g fill="#fff" fill-rule="evenodd" transform="translate(8.5 -1012.362)"><circle cx="15.5" cy="1036.362" r="24" fill="#ef4c45"></circle><path d="M25 4a6.994 6.994 0 0 0-5.895 3.242c-2.754.293-5.102 2.127-6.128 4.744-.283-.042-.564-.094-.85-.095a.5.5 0 0 0-.002 0c-2.876 0-5.238 2.12-5.752 4.921-.403-.102-.804-.219-1.22-.22a.5.5 0 0 0-.003 0C2.31 16.594 0 18.935 0 21.799s2.309 5.2 5.15 5.201c.116 0 .203-.012.274-.016-.06 0-.043.016.113.016h20.926c.448 0 .86-.1 1.236-.236 2.543-.733 4.299-3.08 4.301-5.748a5.993 5.993 0 0 0-2.377-4.774A6.98 6.98 0 0 0 32 11c0-3.86-3.14-7-7-7Zm0 1c3.32 0 6 2.68 6 6s-2.68 6-6 6-6-2.68-6-6 2.68-6 6-6zm-1.508 2.014v.002a.5.5 0 0 0-.51.5v6.998a.5.5 0 0 0 .002.037.5.5 0 0 0 0 .012.5.5 0 0 0 .004.025.5.5 0 0 0 .004.025.5.5 0 0 0 .006.024.5.5 0 0 0 .016.049.5.5 0 0 0 .02.044.5.5 0 0 0 .02.041.5.5 0 0 0 .003 0 .5.5 0 0 0 .013.02.5.5 0 0 0 .024.033.5.5 0 0 0 .016.018.5.5 0 0 0 .015.02.5.5 0 0 0 .02.015.5.5 0 0 0 .007.01.5.5 0 0 0 .02.017.5.5 0 0 0 .02.016.5.5 0 0 0 .021.014.5.5 0 0 0 .035.021.5.5 0 0 0 .014.01.5.5 0 0 0 .039.02.5.5 0 0 0 .023.01.5.5 0 0 0 .04.011.5.5 0 0 0 .058.01.5.5 0 0 0 .025 0 .5.5 0 0 0 .026 0 .5.5 0 0 0 .01 0 .5.5 0 0 0 .048 0 .5.5 0 0 0 .051-.01.5.5 0 0 0 .096-.03.5.5 0 0 0 .086-.048.5.5 0 0 0 .04-.03.5.5 0 0 0 .009-.01.5.5 0 0 0 .029-.027l3.809-3.347h-.188a.5.5 0 0 0 .33-.875l-3.98-3.5a.5.5 0 0 0-.32-.125zm-4.965 1.328A6.96 6.96 0 0 0 18 11c0 3.86 3.14 7 7 7 1.4 0 2.702-.417 3.797-1.127A4.995 4.995 0 0 1 31 21.018c-.003 2.234-1.468 4.187-3.588 4.793a.5.5 0 0 0-.035.011c-.306.113-.606.18-.914.18H5.537c.086 0 .046-.016-.123-.016a.5.5 0 0 0-.035 0c-.103.01-.179.014-.229.014C2.856 26 1 24.129 1 21.799c0-2.33 1.854-4.202 4.148-4.203.48 0 .953.088 1.403.254a.5.5 0 0 0 .672-.424c.232-2.573 2.354-4.53 4.9-4.531.347 0 .694.039 1.033.113a.5.5 0 0 0 .582-.332 6.497 6.497 0 0 1 4.79-4.334zm5.455.28 2.725 2.394-2.725 2.394V8.621z" color="#000" font-family="sans-serif" font-weight="400" overflow="visible" transform="translate(-.5 1019.362)" style="line-height:normal;text-indent:0;text-align:start;text-decoration-line:none;text-decoration-style:solid;text-decoration-color:#000;text-transform:none;block-progression:tb;isolation:auto;mix-blend-mode:normal"></path></g></svg>